<?xml version="1.0" encoding="utf-8"?>
<!-- Svg Vector Icons : http://www.onlinewebfonts.com/icon -->
<!DOCTYPE svg PUBLIC "-//W3C//DTD SVG 1.1//EN" "http://www.w3.org/Graphics/SVG/1.1/DTD/svg11.dtd">
<svg version="1.1" xmlns="http://www.w3.org/2000/svg" xmlns:xlink="http://www.w3.org/1999/xlink" x="0px" y="0px" viewBox="0 0 256 256" enable-background="new 0 0 256 256" xml:space="preserve">
<metadata> Svg Vector Icons : http://www.onlinewebfonts.com/icon </metadata>
<g><g><g><path fill="#fff" d="M121.6,11.4c-2,1-3.5,2.2-4.7,3.7c-1.8,2.2-3.2,5.9-3.2,8.1c0,1.1-1.6,1.6-6,1.6c-3.1,0-5.2,1.2-6.5,3.9c-0.8,1.7-1,2.8-1,8.7c0,6,0.1,6.9,1.1,8.7c0.6,1.1,1.6,2.5,2.3,3c1.3,1,1.9,1,24.4,1c22.5,0,23.1,0,24.4-1c0.7-0.5,1.8-1.9,2.4-3c0.9-1.9,1-2.7,1-8.7c0-5.8-0.1-6.9-1-8.7c-1.3-2.7-3.3-3.9-6.5-3.9c-4.3,0-6-0.5-6-1.6c0-2.2-1.5-5.9-3.2-8.1c-2.7-3.4-6.4-5.2-11.1-5.2C124.9,10,124,10.2,121.6,11.4z M132.5,17.5c2.2,1.4,3.5,4,3.5,6.8c-0.1,7-8.4,10.5-13.5,5.6c-4.2-3.9-3.2-10.4,1.9-13C127,15.6,130,15.9,132.5,17.5z"/><path fill="#fff" d="M47.7,37.3c-0.5,0.2-1.3,0.9-1.9,1.4c-0.9,1-0.9,1.8-1.1,101.5c0,55.3,0,101.2,0.1,102c0.2,0.8,0.8,2,1.4,2.6l1.1,1.1H128h80.6l1.1-1.1c0.6-0.6,1.2-1.8,1.4-2.6c0.1-0.9,0.2-46.8,0.1-102.1l-0.1-100.6l-1.3-1.2l-1.3-1.3h-22.3h-22.3l-0.2,5.3c-0.2,3.5-0.6,5.9-1,7c-1.2,2.6-4.7,6.2-7.5,7.4l-2.4,1.1H128h-24.8l-2.4-1.1c-2.7-1.2-6.3-4.7-7.5-7.4c-0.5-1.1-0.8-3.6-1-7l-0.2-5.3L70.4,37C58.5,36.9,48.2,37.1,47.7,37.3z M81.8,51.9c2.4,7.9,9.9,14.9,18.3,17.1c4,1,51.9,1,55.9,0c8.3-2.2,15.9-9.2,18.3-17.1l0.9-2.8l12.1-0.1l12.1-0.1v92.8v92.8H128H56.7v-92.8V48.9L68.8,49l12.1,0.1L81.8,51.9z"/><path fill="#fff" d="M69.2,85.8c-2.7,2.5-2.1,7.1,1.2,8.7c2,1,11.6,1,13.9,0.1c1.9-0.8,3-2.8,3-5.2c0-1.3-0.4-2-1.6-3.2l-1.6-1.6h-6.8C70.7,84.5,70.6,84.5,69.2,85.8z"/><path fill="#fff" d="M100.9,86.1c-1.8,1.8-2.1,4-0.8,6.3c1.4,2.8,0,2.7,43.7,2.7c35.9,0,40-0.1,41.4-0.7c3.3-1.6,3.9-6.2,1.1-8.7l-1.4-1.3h-41.2h-41.2L100.9,86.1z"/><path fill="#fff" d="M71.3,126c-0.6,0.1-1.6,0.9-2.3,1.6c-1.1,1.2-1.3,1.8-1.3,3.7c0,2,0.2,2.5,1.5,3.7l1.5,1.3h6.8c4.6,0,7-0.2,7.5-0.6c3.1-2.4,3.1-6.9,0-9c-1-0.6-2.3-0.8-7-0.9C74.8,125.8,71.8,125.9,71.3,126z"/><path fill="#fff" d="M103.5,126c-2.9,1-4.2,2.7-4.2,5.4c0,1.5,0.9,3.3,2.3,4.4c0.5,0.5,10.3,0.6,42.2,0.6h41.4l1.3-1.3c1.7-1.7,2.1-4.5,1-6.4c-1.7-2.8,0.9-2.7-43-2.8C122.3,125.8,103.8,125.9,103.5,126z"/><path fill="#fff" d="M70.3,168c-1.5,0.6-3,3.1-3,4.9c0,1.3,1.2,3.5,2.4,4.3c0.8,0.6,2.4,0.7,7.6,0.7c6.6,0,6.6,0,8-1.3c2.7-2.4,2.2-7-0.9-8.7C82.7,167.1,72.5,167.1,70.3,168z"/><path fill="#fff" d="M102.2,168c-1.8,0.7-2.9,2.8-2.9,5.1c0,1.3,0.4,2,1.6,3.2l1.6,1.6h41.2h41.2l1.4-1.3c2.7-2.4,2.2-7-0.9-8.7c-1.2-0.6-6.5-0.7-41.5-0.7C110.7,167.4,103.4,167.5,102.2,168z"/><path fill="#fff" d="M69.8,209.9c-1.7,1-2.8,3.8-2.3,5.8c0.2,0.7,0.9,1.9,1.7,2.6l1.3,1.3h6.8c6.7,0,6.8,0,8.1-1.3c2.7-2.4,2.2-7-0.9-8.7c-1-0.5-2.9-0.7-7.3-0.7C72.2,209,71.1,209.1,69.8,209.9z"/><path fill="#fff" d="M101.8,209.9c-2.9,1.8-3.3,6.1-0.6,8.5l1.4,1.3h41.2h41.2l1.4-1.3c2.7-2.4,2.2-7-0.9-8.7c-1.2-0.6-6.5-0.7-41.7-0.7C105,209,103.2,209,101.8,209.9z"/></g></g></g>
</svg>