<svg width="305" height="305" fill="#000000" xmlns="http://www.w3.org/2000/svg" xmlns:xlink="http://www.w3.org/1999/xlink" xml:space="preserve" overflow="hidden"><defs><clipPath id="clip0"><rect x="778" y="34" width="305" height="305"/></clipPath></defs><g clip-path="url(#clip0)" transform="translate(-778 -34)"><path d="M892.156 176.105 887.663 180.597 920.276 213.213 976.514 156.975 972.021 152.483 920.276 204.228 892.156 176.105Z" fill="#70AD47"/><path d="M1027.5 103.578C993.77 100.851 962.335 85.4055 939.564 60.3698 935.267 55.3848 927.742 54.8276 922.757 59.1251 922.312 59.5087 921.896 59.9248 921.512 60.3698 898.743 85.4043 867.302 100.837 833.57 103.537 827.295 104.142 822.522 109.442 822.574 115.746L822.574 146.51C822.574 213.429 865.004 274.639 923.895 312.513 927.937 315.126 933.136 315.126 937.178 312.513 996.072 274.639 1038.5 213.461 1038.5 146.542L1038.5 115.784C1038.56 109.477 1033.78 104.174 1027.5 103.578ZM1032.14 146.551C1032.14 207.504 995.36 267.551 933.744 307.175 931.795 308.444 929.281 308.444 927.332 307.175 865.716 267.547 828.929 207.488 828.929 146.516L828.929 115.753C828.872 112.757 831.105 110.211 834.082 109.875 869.43 107.076 902.38 90.9035 926.217 64.6525 927.296 63.3863 928.863 62.6379 930.525 62.5938 932.198 62.6378 933.773 63.3853 934.865 64.6525 958.707 90.9012 991.653 107.083 1027 109.907 1029.98 110.241 1032.21 112.788 1032.16 115.784Z" fill="#70AD47"/><path d="M847.991 127.406 847.991 146.526C847.991 198.646 878.691 250.417 930.538 286.403 982.382 250.397 1013.08 198.646 1013.08 146.548L1013.08 127.406C982.211 122.495 953.488 108.55 930.535 87.3305 907.588 108.557 878.863 122.503 847.991 127.406ZM1006.73 146.558C1006.73 194.945 978.331 244.027 930.538 278.613 882.745 244.005 854.345 194.926 854.345 146.516L854.345 132.728C882.53 127.309 908.799 114.591 930.532 95.8451 952.269 114.593 978.541 127.317 1006.73 132.747Z" fill="#70AD47"/></g></svg>